<svg xmlns="http://www.w3.org/2000/svg" xmlns:xlink="http://www.w3.org/1999/xlink" version="1.1" x="0px" y="0px" width="36px" height="36px" viewBox="0 0 36 36" style="width: 1em;height: 1em;vertical-align: middle;fill: currentColor;overflow: hidden;" xml:space="preserve"><path d="M21,3c7.2,0,13,5.8,13,13c0,3.5-1.3,6.6-3.5,8.9l-7.7,8.7C22.6,33.9,22.3,34,22,34c-0.6,0-1-0.4-1-1l0-4h-6  C7.8,29,2,23.2,2,16S7.8,3,15,3H21z M14,14c-1.1,0-2,0.9-2,2s0.9,2,2,2s2-0.9,2-2S15.1,14,14,14z M22,14c-1.1,0-2,0.9-2,2s0.9,2,2,2  s2-0.9,2-2S23.1,14,22,14z" fill="#ff0000" /></svg>