<svg xmlns="http://www.w3.org/2000/svg" xmlns:xlink="http://www.w3.org/1999/xlink" version="1.1" x="0px" y="0px" width="36px" height="36px" viewBox="0 0 36 36" style="width: 1em;height: 1em;vertical-align: middle;fill: currentColor;overflow: hidden;" xml:space="preserve"><path d="M21,3c7.2,0,13,5.8,13,13c0,3.5-1.3,6.6-3.5,8.9l-7.7,8.7C22.6,33.9,22.3,34,22,34c-0.6,0-1-0.4-1-1l0-4h-6  C7.8,29,2,23.2,2,16S7.8,3,15,3H21z M21,5.5h-6C9.2,5.5,4.5,10.2,4.5,16S9.2,26.5,15,26.5h8.5l0,2.5l5.1-5.8  c1.7-1.9,2.8-4.3,2.9-6.9l0-0.3C31.5,10.2,26.8,5.5,21,5.5z M14,14c1.1,0,2,0.9,2,2s-0.9,2-2,2s-2-0.9-2-2S12.9,14,14,14z M22,14  c1.1,0,2,0.9,2,2s-0.9,2-2,2s-2-0.9-2-2S20.9,14,22,14z" /></svg>