<?xml version="1.0" standalone="no"?><!DOCTYPE svg PUBLIC "-//W3C//DTD SVG 1.1//EN" "http://www.w3.org/Graphics/SVG/1.1/DTD/svg11.dtd"><svg class="icon" width="32px" height="32.00px" viewBox="0 0 1024 1024" version="1.1" xmlns="http://www.w3.org/2000/svg"><path d="M502.857143 196.022857V435.2l-82.285714-54.820571L338.358857 435.2l-0.365714-239.177143h164.864z m-47.542857 47.506286h-69.705143l0.146286 102.948571 34.816-23.186285 34.742857 23.149714V243.529143z" fill="#E50738" /><path d="M259.986286 819.894857v-46.665143H763.977143v46.336l-504.027429 0.329143z m75.885714-614.765714H762.989714v509.586286H259.986286V205.165714h75.885714zM763.977143 146.285714H260.022857A58.88 58.88 0 0 0 201.142857 205.165714v614.729143A58.88 58.88 0 0 0 259.986286 877.714286H763.977143a58.88 58.88 0 0 0 58.843428-58.88V205.165714c0-32.548571-26.331429-58.88-58.843428-58.88z" fill="#444444" /></svg>