<?xml version="1.0" encoding="UTF-8"?>
<svg width="26px" height="26px" viewBox="0 0 26 26" version="1.1" xmlns="http://www.w3.org/2000/svg" xmlns:xlink="http://www.w3.org/1999/xlink">
    <title>icon_multi_file</title>
    <g id="icon_multi_file" stroke="none" stroke-width="1" fill="none" fill-rule="evenodd">
        <path d="M21.1818182,8.9055419 C22.1859723,8.9055419 23,9.71956963 23,10.7237237 L23,18.2213588 C23,20.289113 21.323754,21.9653589 19.2559999,21.9653589 L6.74400015,21.9653589 C4.67624596,21.9653589 3,20.289113 3,18.2213588 L3,8.9055419 L21.1818182,8.9055419 Z M19,17.1898487 L16.0909091,17.1898487 C15.6892475,17.1898487 15.3636364,17.5154598 15.3636364,17.9171215 L15.3636364,17.9171215 L15.3636364,17.9319638 C15.3636364,18.3336254 15.6892475,18.6592365 16.0909091,18.6592365 L16.0909091,18.6592365 L19,18.6592365 C19.4016616,18.6592365 19.7272727,18.3336254 19.7272727,17.9319638 L19.7272727,17.9319638 L19.7272727,17.9171215 C19.7272727,17.5154598 19.4016616,17.1898487 19,17.1898487 L19,17.1898487 Z" fill="#D15731"></path>
        <path d="M9.77824634,3.96535893 C10.2247677,3.96535893 10.6372665,4.20391866 10.8599599,4.59094442 L12.286,7.06835893 L3,7.0688072 L3,5.837359 C3,4.80348191 3.83812298,3.96535893 4.87200007,3.96535893 L9.77824634,3.96535893 Z" fill="#D15731" opacity="0.400000006"></path>
    </g>
</svg>