<?xml version="1.0" standalone="no"?><!DOCTYPE svg PUBLIC "-//W3C//DTD SVG 1.1//EN" "http://www.w3.org/Graphics/SVG/1.1/DTD/svg11.dtd"><svg class="icon" width="48px" height="48.00px" viewBox="0 0 1024 1024" version="1.1" xmlns="http://www.w3.org/2000/svg"><path d="M529.066667 437.333333c-36.266667 0-64 27.733333-64 64s27.733333 64 64 64 64-27.733333 64-64-27.733333-64-64-64zM337.066667 437.333333c-36.266667 0-64 27.733333-64 64s27.733333 64 64 64 64-27.733333 64-64-27.733333-64-64-64zM721.066667 437.333333c-36.266667 0-64 27.733333-64 64s27.733333 64 64 64 64-27.733333 64-64-27.733333-64-64-64z" fill="#e6e6e6" /><path d="M529.066667 160c187.733333 0 341.333333 153.6 341.333333 341.333333s-153.6 341.333333-341.333333 341.333334-341.333333-153.6-341.333334-341.333334 153.6-341.333333 341.333334-341.333333m0-85.333333c-234.666667 0-426.666667 192-426.666667 426.666666s192 426.666667 426.666667 426.666667 426.666667-192 426.666666-426.666667-189.866667-426.666667-426.666666-426.666666z" fill="#e6e6e6" /></svg>