<?xml version="1.0" encoding="UTF-8"?>
<svg width="17px" height="16px" viewBox="0 0 17 16" version="1.1" xmlns="http://www.w3.org/2000/svg" xmlns:xlink="http://www.w3.org/1999/xlink">
    <title>版本更新 多色</title>
    <defs>
        <path d="M14.0555556,2.475 C15.4055849,2.475 16.5,3.56941506 16.5,4.91944444 L16.5,13.2305556 C16.5,14.5805849 15.4055849,15.675 14.0555556,15.675 L2.44444444,15.675 C1.09441506,15.675 0,14.5805849 0,13.2305556 L0,4.91944444 C0,3.56941506 1.09441506,2.475 2.44444444,2.475 L14.0555556,2.475 Z M14.0555556,3.975 L2.44444444,3.975 C1.92284218,3.975 1.5,4.39784218 1.5,4.91944444 L1.5,13.2305556 C1.5,13.7521578 1.92284218,14.175 2.44444444,14.175 L14.0555556,14.175 C14.5771578,14.175 15,13.7521578 15,13.2305556 L15,4.91944444 C15,4.39784218 14.5771578,3.975 14.0555556,3.975 Z M14.0125,0 C14.3921958,0 14.7,0.307804234 14.7,0.6875 C14.7,1.06719577 14.3921958,1.375 14.0125,1.375 L2.1875,1.375 C1.80780423,1.375 1.5,1.06719577 1.5,0.6875 C1.5,0.307804234 1.80780423,0 2.1875,0 L14.0125,0 Z" id="path-1"></path>
    </defs>
    <g id="页面-1" stroke="none" stroke-width="1" fill="none" fill-rule="evenodd">
        <g id="版本更新-多色">
            <mask id="mask-2" fill="white">
                <use xlink:href="#path-1"></use>
            </mask>
            <use id="形状" fill="#CCCCCC" xlink:href="#path-1"></use>
            <path d="M8.42534586,6.27884928 C8.78433095,6.27884928 9.07534586,6.5698642 9.07534586,6.92884928 L9.075,10.199 L10.1028318,9.22364822 C10.3630052,8.97630203 10.774431,8.98670046 11.0217772,9.24687378 C11.2691234,9.5070471 11.2587249,9.91847295 10.9985516,10.1658191 L8.8609733,12.1980101 C8.6090019,12.4375587 8.21314217,12.4364207 7.96255228,12.1954272 L5.84943888,10.1632363 C5.59069205,9.91439824 5.58265937,9.5029194 5.83149741,9.24417256 C6.08033544,8.98542573 6.49181428,8.97739305 6.75056111,9.22623109 L7.775,10.212 L7.77534586,6.92884928 C7.77534586,6.5698642 8.06636078,6.27884928 8.42534586,6.27884928 Z" id="路径" fill="#D15731" transform="translate(8.425346, 9.327887) scale(-1, 1) rotate(-180.000000) translate(-8.425346, -9.327887) "></path>
        </g>
    </g>
</svg>