<?xml version="1.0" encoding="UTF-8"?>
<svg width="22px" height="22px" viewBox="0 0 22 22" version="1.1" xmlns="http://www.w3.org/2000/svg" xmlns:xlink="http://www.w3.org/1999/xlink">
    <title>icon_multi_wallet_dark</title>
    <g id="icon_multi_wallet_dark" stroke="none" stroke-width="1" fill="none" fill-rule="evenodd">
        <path d="M16.5,8 L5.5,8 C4.94771525,8 4.5,8.44771525 4.5,9 L4.5,16.5 C4.5,17.0522847 4.94771525,17.5 5.5,17.5 L16.5,17.5 C17.0522847,17.5 17.5,17.0522847 17.5,16.5 L17.5,9 C17.5,8.44771525 17.0522847,8 16.5,8 Z M5.5,4.5 C4.94771525,4.5 4.5,4.94771525 4.5,5.5 C4.5,6.01283584 4.88604019,6.43550716 5.38337887,6.49327227 L5.5,6.5 L16.5,6.5 C17.8807119,6.5 19,7.61928813 19,9 L19,16.5 C19,17.8807119 17.8807119,19 16.5,19 L5.5,19 C4.11928813,19 3,17.8807119 3,16.5 L3,5.5 C3,4.11928813 4.11928813,3 5.5,3 L16.75,3 C17.1642136,3 17.5,3.33578644 17.5,3.75 C17.5,4.16421356 17.1642136,4.5 16.75,4.5 L5.5,4.5 Z" fill="#CCCCCC"></path>
        <path d="M12.5929088,10.1122922 C12.8847398,10.2582077 12.9723013,10.6376002 12.7971936,10.9002542 L12.3964833,11.6004555 L12.7971936,11.6006547 C13.1182168,11.6006547 13.3808708,11.853779 13.3808708,12.1631693 C13.3808708,12.4725596 13.1182168,12.7256547 12.7971784,12.7256547 L11.7534833,12.7254555 L11.6298391,12.9431017 L11.6294833,13.3514555 L12.7971936,13.3516864 C13.1182168,13.3516864 13.3808708,13.6047994 13.3808708,13.9141791 C13.3808708,14.2235588 13.1182168,14.4766864 12.7971784,14.4766864 L11.6294833,14.4764555 L11.6298391,15.3945491 C11.6298391,15.7155723 11.3671851,15.9782263 11.046177,15.9782263 C10.7251538,15.9782263 10.4624847,15.7155572 10.4624847,15.394534 L10.4624833,14.4764555 L9.29514535,14.4766864 C8.97413726,14.4766864 8.71148326,14.2235588 8.71148326,13.9141791 C8.71148326,13.6047994 8.97413726,13.3516864 9.29514535,13.3516864 L10.4624833,13.3514555 L10.4624833,12.8694555 L10.3794833,12.7254555 L9.29514535,12.7256547 C8.97413726,12.7256547 8.71148326,12.4725304 8.71148326,12.1631547 C8.71148326,11.853779 8.97413726,11.6006547 9.29514535,11.6006547 L9.73748326,11.6004555 L9.35351459,10.9294463 C9.17842201,10.6376002 9.29514535,10.2873999 9.55781448,10.1414692 C9.82048361,9.99553857 10.1998458,10.0831151 10.3457613,10.3457691 L11.0624833,11.6004555 L11.0704833,11.6004555 L11.8049468,10.3165921 C11.9508623,10.0247459 12.3302548,9.9371996 12.5929088,10.1122922 Z" fill="#D15731" fill-rule="nonzero"></path>
    </g>
</svg>