<?xml version="1.0" encoding="UTF-8"?><svg width="26px" height="26px" viewBox="0 0 26 26" version="1.1" xmlns="http://www.w3.org/2000/svg" xmlns:xlink="http://www.w3.org/1999/xlink">    <title>名片</title>    <g id="名片" stroke="none" stroke-width="1" fill="none" fill-rule="evenodd">        <path d="M20.6469339,4.5 C21.9464964,4.5 23,5.55724943 23,6.84652476 L23,18.6534752 C23,19.9494251 21.9528725,21 20.6469339,21 L5.35306609,21 C4.05350358,21 3,19.9427506 3,18.6534752 L3,6.84652476 C3,5.55057492 4.04712754,4.5 5.35306609,4.5 L20.6469339,4.5 Z M15.6470588,13.6339286 L10.3529412,13.6339286 C9.37823529,13.6339286 8.58823529,14.4253393 8.58823529,15.4017857 L8.58823529,15.4017857 L8.58823529,16.2857143 C8.58823529,16.6112946 8.85147059,16.875 9.17647059,16.875 L9.17647059,16.875 L16.8235294,16.875 C17.1482353,16.875 17.4117647,16.6112946 17.4117647,16.2857143 L17.4117647,16.2857143 L17.4117647,15.4017857 C17.4117647,14.4253393 16.6217647,13.6339286 15.6470588,13.6339286 L15.6470588,13.6339286 Z M13,8.03571429 C11.7005882,8.03571429 10.6470588,9.091125 10.6470588,10.3928571 C10.6470588,11.6945893 11.7005882,12.75 13,12.75 C14.2994118,12.75 15.3529412,11.6945893 15.3529412,10.3928571 C15.3529412,9.091125 14.2994118,8.03571429 13,8.03571429 Z" id="形状结合" fill="#FF7D41" opacity="0.400000006"></path>        <path d="M20.6469339,4.5 C21.9464964,4.5 23,5.55472624 23,6.85977598 L23,15.5 L17.411,15.5 L17.4117647,15.4017857 C17.4117647,14.4741616 16.6987897,13.7135322 15.7918038,13.6397884 L15.6470588,13.6339286 L10.3529412,13.6339286 C9.37823529,13.6339286 8.58823529,14.4253393 8.58823529,15.4017857 L8.58823529,15.4017857 L8.588,15.5 L3,15.5 L3,6.85977598 C3,5.55650769 4.04712754,4.5 5.35306609,4.5 L20.6469339,4.5 Z M13,8.03571429 C11.7005882,8.03571429 10.6470588,9.091125 10.6470588,10.3928571 C10.6470588,11.6945893 11.7005882,12.75 13,12.75 C14.2994118,12.75 15.3529412,11.6945893 15.3529412,10.3928571 C15.3529412,9.091125 14.2994118,8.03571429 13,8.03571429 Z" id="形状结合" fill="#FF7D41"></path>    </g></svg>