<?xml version="1.0" standalone="no"?><!DOCTYPE svg PUBLIC "-//W3C//DTD SVG 1.1//EN" "http://www.w3.org/Graphics/SVG/1.1/DTD/svg11.dtd"><svg class="icon" width="32px" height="32.00px" viewBox="0 0 1024 1024" version="1.1" xmlns="http://www.w3.org/2000/svg"><path d="M525.046519 37.925926c27.167605 0.404543 54.322568 3.742025 80.554666 10.745679a322.332444 322.332444 0 0 1 143.890963 82.134914c39.910716 39.392395 68.696494 88.493827 83.487605 142.373925a318.881185 318.881185 0 0 1 3.729383 152.032396A316.049383 316.049383 0 0 1 790.123457 533.680988c-9.228642 13.349926-18.823901 26.611358-30.682074 37.812148-74.777284 74.714074-149.870617 149.137383-224.837531 223.611259a16.523062 16.523062 0 0 1-11.883457 4.791309 16.611556 16.611556 0 0 1-11.731753-5.082074c-74.031407-73.576296-148.138667-147.076741-222.056296-220.766815-4.766025-4.829235-9.810173-9.380346-13.994667-14.702617a317.616988 317.616988 0 0 1-63.209877-123.309828 318.552494 318.552494 0 0 1-3.413333-143.966814 317.351506 317.351506 0 0 1 81.540741-154.649284 321.965827 321.965827 0 0 1 112.64-76.269037A326.264099 326.264099 0 0 1 520.331062 37.925926h4.728098zM503.909136 212.562173a139.099654 139.099654 0 0 0-51.667753 18.078025 137.98716 137.98716 0 0 0-40.542815 36.560592 135.319704 135.319704 0 0 0-26.699852 79.897284 135.610469 135.610469 0 0 0 23.855407 78.127407 138.189432 138.189432 0 0 0 73.411951 53.854815c29.291457 8.950519 60.732049 7.989728 89.416691-2.705382a138.707753 138.707753 0 0 0 46.990223-29.493729 137.418272 137.418272 0 0 0 31.529086-45.460543 136.38163 136.38163 0 0 0-6.27042-119.251753 138.164148 138.164148 0 0 0-66.825481-59.960889 139.896099 139.896099 0 0 0-73.197037-9.645827z" fill="#fbf7f7" /><path d="M213.801086 744.713481c46.01679-16.611556 93.891951-27.230815 142.108445-34.462024 37.963852 40.302617 75.96563 80.592593 113.866271 120.945778 8.899951 11.466272 21.744198 19.759407 35.941136 22.08553 17.066667 3.122568 35.397531-2.30084 48.19121-14.348642 40.024494-43.109136 80.655802-85.586173 120.794074-128.594172 41.061136 5.865877 81.780938 14.702617 121.438815 27.281382 33.223111 10.707753 65.991111 23.969185 95.510123 43.13442 16.535704 10.884741 32.262321 23.779556 43.690667 40.391111 8.672395 12.641975 14.27279 28.039901 13.274074 43.665383-0.910222 18.014815-10.025086 34.474667-21.655703 47.571753-20.656988 23.046321-47.786667 38.646519-75.282963 51.541333-53.943309 24.436938-111.818272 38.381037-169.946075 47.622321-41.743802 6.320988-83.854222 10.568691-126.040493 11.39042l4.020148 1.061926h-64.979753c-9.001086-0.809086-18.052741-0.530963-27.079111-1.061926-69.429728-2.983506-138.897383-11.693827-206.177976-29.835062-35.511309-9.772247-70.618074-21.997037-103.221728-39.657876-18.912395-10.36642-37.142123-22.565926-52.072296-38.482173-10.49284-11.264-19.26637-24.82884-22.629136-40.214123a64.815407 64.815407 0 0 1 5.296987-41.971359c8.647111-18.078025 23.29916-32.262321 38.937284-44.044641 26.105679-19.354864 55.814321-32.89442 86.041284-44.019359h-0.025284z" fill="#fbf7f7" /></svg>