<svg xmlns="http://www.w3.org/2000/svg" xmlns:xlink="http://www.w3.org/1999/xlink" version="1.1" width="12.16668701171875" height="12.166666984558105" viewBox="0 0 12.16668701171875 12.166666984558105" style="width: 1em;height: 1em;vertical-align: middle;fill: currentColor;overflow: hidden;"><g style="mix-blend-mode:passthrough"><g style="mix-blend-mode:passthrough"><path d="M6.833314768371582,5.33333L6.833314768371582,0.75C6.833314768371582,0.335786,6.497534768371582,0,6.083314768371582,0C5.669104768371582,0,5.333314768371582,0.335786,5.333314768371582,0.75L5.333314768371582,5.33333L0.750004768371582,5.33333C0.335790768371582,5.33333,0.00000476837158203125,5.66912,0.00000476837158203125,6.08333C0.00000476837158203125,6.49755,0.335790768371582,6.83333,0.750004768371582,6.83333L5.333314768371582,6.83333L5.333314768371582,11.4167C5.333314768371582,11.8309,5.669104768371582,12.1667,6.083314768371582,12.1667C6.497534768371582,12.1667,6.833314768371582,11.8309,6.833314768371582,11.4167L6.833314768371582,6.83333L11.416704768371583,6.83333C11.830904768371582,6.83333,12.166704768371583,6.49755,12.166704768371583,6.08333C12.166704768371583,5.66912,11.830904768371582,5.33333,11.416704768371583,5.33333L6.833314768371582,5.33333Z" fill-rule="evenodd" fill-opacity="0.5"/></g></g></svg>