<?xml version="1.0" encoding="UTF-8"?><svg width="22px" height="22px" viewBox="0 0 22 22" version="1.1" xmlns="http://www.w3.org/2000/svg" xmlns:xlink="http://www.w3.org/1999/xlink">    <title>icon_multi_attention</title>    <g id="icon_multi_attention" stroke="none" stroke-width="1" fill="none" fill-rule="evenodd">        <path d="M20.5140724,10.2380952 C20.9437523,9.76190475 21.1347212,9.0952381 20.8960101,8.47619047 C20.7050413,7.85714285 20.179877,7.42857142 19.6069704,7.38095239 L14.975976,6.66666666 C14.7850072,6.6190476 14.6417806,6.52380951 14.5462961,6.33333332 L12.4456389,1.95238095 C12.1591856,1.38095237 11.5862791,1 10.9656304,1 C10.3449817,1 9.77207513,1.33333334 9.48562188,1.95238095 L7.43270683,6.33333332 C7.33722241,6.52380951 7.19399577,6.66666666 7.00302694,6.66666666 L2.37203254,7.38095239 C1.75138381,7.47619048 1.2739617,7.90476191 1.08299286,8.47619047 C0.892024022,9.09523808 1.03525064,9.76190475 1.46493053,10.2380952 L4.85462747,13.6666667 C4.99785411,13.8095238 5.04559631,14 4.99785409,14.2380952 L4.18623653,19.047619 C4.09075211,19.7142857 4.32946316,20.3333333 4.90236967,20.7142857 C5.42753398,21.047619 6.04818271,21.0952381 6.62108924,20.8095238 L10.7746616,18.5238095 C10.9178882,18.4285714 11.108857,18.4285714 11.2520836,18.5238095 L15.4056559,20.8095238 C15.644367,20.9523809 15.9308202,21 16.1695313,21 C16.5037268,21 16.8379222,20.9047619 17.1243755,20.7142857 C17.6495398,20.3333333 17.9359931,19.7142857 17.7927665,19.047619 L16.9811489,14.1904762 C16.9334067,14 17.0288911,13.7619048 17.1721177,13.6190476 L20.5140724,10.2380952 Z" fill="#FFC800" fill-rule="nonzero" opacity="0.400000006"></path>        <path d="M10.9656304,1 C11.5862791,1 12.1591856,1.38095237 12.4456389,1.95238095 L12.4456389,1.95238095 L14.5462961,6.33333332 C14.6417806,6.52380951 14.7850072,6.6190476 14.975976,6.66666666 L14.975976,6.66666666 L19.6069704,7.38095239 C20.179877,7.42857142 20.7050413,7.85714285 20.8960101,8.47619047 C21.1347212,9.0952381 20.9437523,9.76190475 20.5140724,10.2380952 L20.5140724,10.2380952 L17.1721177,13.6190476 C17.0288911,13.7619048 16.9334067,14 16.9811489,14.1904762 L16.9811489,14.1904762 L16.992,14.257 L11.039531,18.4531597 C10.9752081,18.4493257 10.9101442,18.4596481 10.8498113,18.484127 L10.7746616,18.5238095 L6.62108924,20.8095238 C6.04818271,21.0952381 5.42753398,21.047619 4.90236967,20.7142857 C4.32946316,20.3333333 4.09075211,19.7142857 4.18623653,19.047619 L4.18623653,19.047619 L4.99785409,14.2380952 C5.04559631,14 4.99785411,13.8095238 4.85462747,13.6666667 L4.85462747,13.6666667 L1.46493053,10.2380952 C1.03525064,9.76190475 0.892024022,9.09523808 1.08299286,8.47619047 C1.2739617,7.90476191 1.75138381,7.47619048 2.37203254,7.38095239 L2.37203254,7.38095239 L7.00302694,6.66666666 C7.19399577,6.66666666 7.33722241,6.52380951 7.43270683,6.33333332 L7.43270683,6.33333332 L9.48562188,1.95238095 C9.77207513,1.33333334 10.3449817,1 10.9656304,1 Z" fill="#FFC800" fill-rule="nonzero"></path>    </g></svg>