<?xml version="1.0" encoding="UTF-8"?><svg width="26px" height="26px" viewBox="0 0 26 26" version="1.1" xmlns="http://www.w3.org/2000/svg" xmlns:xlink="http://www.w3.org/1999/xlink">    <title>icon_multi_card</title>    <g id="icon_multi_card" stroke="none" stroke-width="1" fill="none" fill-rule="evenodd">        <path d="M20.6469339,4.46535893 C21.9464964,4.46535893 23,5.52260836 23,6.81188369 L23,18.6188342 C23,19.914784 21.9528725,20.9653589 20.6469339,20.9653589 L5.35306609,20.9653589 C4.05350358,20.9653589 3,19.9081095 3,18.6188342 L3,6.81188369 C3,5.51593385 4.04712754,4.46535893 5.35306609,4.46535893 L20.6469339,4.46535893 Z M15.6470588,13.5992875 L10.3529412,13.5992875 C9.37823529,13.5992875 8.58823529,14.3906982 8.58823529,15.3671446 L8.58823529,15.3671446 L8.58823529,16.2510732 C8.58823529,16.5766536 8.85147059,16.8403589 9.17647059,16.8403589 L9.17647059,16.8403589 L16.8235294,16.8403589 C17.1482353,16.8403589 17.4117647,16.5766536 17.4117647,16.2510732 L17.4117647,16.2510732 L17.4117647,15.3671446 C17.4117647,14.3906982 16.6217647,13.5992875 15.6470588,13.5992875 L15.6470588,13.5992875 Z M13,8.00107321 C11.7005882,8.00107321 10.6470588,9.05648393 10.6470588,10.3582161 C10.6470588,11.6599482 11.7005882,12.7153589 13,12.7153589 C14.2994118,12.7153589 15.3529412,11.6599482 15.3529412,10.3582161 C15.3529412,9.05648393 14.2994118,8.00107321 13,8.00107321 Z" fill="#D15731" opacity="0.400000006"></path>        <path d="M20.6469339,4.46535893 C21.9464964,4.46535893 23,5.52008517 23,6.8251349 L23,15.4653589 L17.411,15.4653589 L17.4117647,15.3671446 C17.4117647,14.4395205 16.6987897,13.6788912 15.7918038,13.6051473 L15.6470588,13.5992875 L10.3529412,13.5992875 C9.37823529,13.5992875 8.58823529,14.3906982 8.58823529,15.3671446 L8.58823529,15.3671446 L8.588,15.4653589 L3,15.4653589 L3,6.8251349 C3,5.52186662 4.04712754,4.46535893 5.35306609,4.46535893 L20.6469339,4.46535893 Z M13,8.00107321 C11.7005882,8.00107321 10.6470588,9.05648393 10.6470588,10.3582161 C10.6470588,11.6599482 11.7005882,12.7153589 13,12.7153589 C14.2994118,12.7153589 15.3529412,11.6599482 15.3529412,10.3582161 C15.3529412,9.05648393 14.2994118,8.00107321 13,8.00107321 Z" fill="#D15731"></path>    </g></svg>