<svg xmlns="http://www.w3.org/2000/svg" xmlns:xlink="http://www.w3.org/1999/xlink" version="1.1" x="0px" y="0px" width="36px" height="36px" viewBox="0 0 24 24" style="width: 1em;height: 1em;vertical-align: middle;fill: currentColor;overflow: hidden;" xml:space="preserve"><path d="M12,0c6.6,0,12,5.4,12,12c0,6.6-5.4,12-12,12S0,18.6,0,12C0,5.4,5.4,0,12,0z M12,1.5C6.2,1.5,1.5,6.2,1.5,12  c0,5.8,4.7,10.5,10.5,10.5S22.5,17.8,22.5,12C22.5,6.2,17.8,1.5,12,1.5z M16.7,15.4c0.2,0,0.4,0.2,0.4,0.5v0.5  c0,0.3-0.2,0.5-0.4,0.5H7.3c-0.2,0-0.4-0.2-0.4-0.5v-0.5c0-0.3,0.2-0.5,0.4-0.5H16.7z M17.6,11.1c0.2,0,0.4,0.2,0.4,0.4v1.7  c0,0.2-0.2,0.4-0.4,0.4h-0.9c-0.2,0-0.4-0.2-0.4-0.4v-1.7c0-0.2,0.2-0.4,0.4-0.4H17.6z M14.1,11.1c0.2,0,0.4,0.2,0.4,0.4v1.7  c0,0.2-0.2,0.4-0.4,0.4h-0.9c-0.2,0-0.4-0.2-0.4-0.4v-1.7c0-0.2,0.2-0.4,0.4-0.4H14.1z M10.7,11.1c0.2,0,0.4,0.2,0.4,0.4v1.7  c0,0.2-0.2,0.4-0.4,0.4H9.9c-0.2,0-0.4-0.2-0.4-0.4v-1.7c0-0.2,0.2-0.4,0.4-0.4H10.7z M7.3,11.1c0.2,0,0.4,0.2,0.4,0.4v1.7  c0,0.2-0.2,0.4-0.4,0.4H6.4c-0.2,0-0.4-0.2-0.4-0.4v-1.7c0-0.2,0.2-0.4,0.4-0.4H7.3z M17.6,7.3c0.2,0,0.4,0.2,0.4,0.4v1.7  c0,0.2-0.2,0.4-0.4,0.4h-0.9c-0.2,0-0.4-0.2-0.4-0.4V7.7c0-0.2,0.2-0.4,0.4-0.4H17.6z M14.1,7.3c0.2,0,0.4,0.2,0.4,0.4v1.7  c0,0.2-0.2,0.4-0.4,0.4h-0.9c-0.2,0-0.4-0.2-0.4-0.4V7.7c0-0.2,0.2-0.4,0.4-0.4H14.1z M10.7,7.3c0.2,0,0.4,0.2,0.4,0.4v1.7  c0,0.2-0.2,0.4-0.4,0.4H9.9c-0.2,0-0.4-0.2-0.4-0.4V7.7c0-0.2,0.2-0.4,0.4-0.4H10.7z M7.3,7.3c0.2,0,0.4,0.2,0.4,0.4v1.7  c0,0.2-0.2,0.4-0.4,0.4H6.4C6.2,9.9,6,9.7,6,9.4V7.7c0-0.2,0.2-0.4,0.4-0.4H7.3z"/></svg>