<?xml version="1.0" encoding="UTF-8"?><svg version="1.1" width="25px" height="25px" viewBox="0 0 25.0 25.0" xmlns="http://www.w3.org/2000/svg" xmlns:xlink="http://www.w3.org/1999/xlink"><defs><clipPath id="i0"><path d="M18.75,0 C19.44,0 20,0.559375 20,1.25 L20,13.75 C20,15.82125 18.32125,17.5 16.25,17.5 L3.75,17.5 C1.67875,17.5 0,15.82125 0,13.75 L0,1.25 C0,0.559375 0.559375,0 1.25,0 L18.75,0 Z M7.64375,7.769375 L4.0025,11.7875 C3.6775,12.1575 3.765625,12.41625 3.765625,13.123125 L10.170625,13.126875 L12.241875,13.126875 L16.23875,13.12375 C16.23875,12.57375 16.301875,12.3725 16.069375,12.085 L13.4625,8.959375 C13.23,8.671875 13.11125,8.671875 12.878125,8.959375 L11.2975,10.784375 L8.46,7.769375 C8.135,7.4 7.96875,7.4 7.64375,7.769375 Z M14.375,3.125 C13.684375,3.125 13.125,3.684375 13.125,4.375 C13.125,5.065 13.684375,5.625 14.375,5.625 C15.065,5.625 15.625,5.065 15.625,4.375 C15.625,3.684375 15.065,3.125 14.375,3.125 Z"></path></clipPath><clipPath id="i1"><path d="M18.75,0 C19.44,0 20,0.559375 20,1.25 L20,12 L15.998,12 L13.4625,8.959375 C13.23,8.671875 13.11125,8.671875 12.878125,8.959375 L11.2975,10.784375 L8.46,7.769375 C8.135,7.4 7.96875,7.4 7.64375,7.769375 L4.0025,11.7875 C3.93743774,11.8615709 3.88893215,11.9311832 3.8529617,12.0008249 L0,12 L0,1.25 C0,0.559375 0.559375,0 1.25,0 L18.75,0 Z M14.375,3.125 C13.684375,3.125 13.125,3.684375 13.125,4.375 C13.125,5.065 13.684375,5.625 14.375,5.625 C15.065,5.625 15.625,5.065 15.625,4.375 C15.625,3.684375 15.065,3.125 14.375,3.125 Z"></path></clipPath></defs><g transform="translate(2.5 4.5)"><g clip-path="url(#i0)"><polygon points="0,0 20,0 20,17.5 0,17.5 0,0" stroke="none" fill="#D15730" opacity="40.0000006%"></polygon></g></g><g transform="translate(2.5 4.500000000000001)"><g clip-path="url(#i1)"><polygon points="0,0 20,0 20,12.0008249 0,12.0008249 0,0" stroke="none" fill="#D15730"></polygon></g></g></svg>